<?xml version="1.0"?>
<svg xmlns="http://www.w3.org/2000/svg" id="Layer_5" enable-background="new 0 0 64 64" height="512px" viewBox="0 0 64 64" width="512px" class=""><g><path d="m12.832 57.555 3.168-4.752 3.168 4.752 1.664-1.11-3.63-5.445 3.63-5.445-1.664-1.11-3.168 4.752-3.168-4.752-1.664 1.11 3.63 5.445-3.63 5.445z" data-original="#000000" class="active-path" data-old_color="#000000" fill="#DA2315"/><path d="m54.81 15.377c1.933-1.461 3.19-3.772 3.19-6.377 0-4.411-3.589-8-8-8s-8 3.589-8 8c0 2.39 1.059 4.533 2.726 6h-15.726v-2h-26v22c-1.103 0-2 .897-2 2v2c0 1.103.897 2 2 2h.087l1.587 17.453c.235 2.592 2.375 4.547 4.979 4.547h12.694c2.604 0 4.744-1.955 4.979-4.547l1.587-17.453h.087c1.103 0 2-.897 2-2v-2c0-1.103-.897-2-2-2v-12h12.889c.277 0 .535.11.726.312s.288.466.273.743l-1.863 34.504c-.244 2.19 1.34 4.172 3.54 4.418.16.016.298.023.436.023 2.041 0 3.75-1.53 3.976-3.576l1.023-10.809 1.024 10.826c.225 2.029 1.934 3.559 3.975 3.559.139 0 .276-.007.445-.024 2.191-.245 3.775-2.227 3.536-4.359l-1.032-19.617h1.052c2.206 0 4-1.794 4-4v-9c0-5.093-3.484-9.376-8.19-10.623zm-3.836 13.235-.974.974-.974-.974.726-11.612h.496zm-6.974-19.612c0-3.309 2.691-6 6-6s6 2.691 6 6-2.691 6-6 6-6-2.691-6-6zm-18.666 49.271c-.141 1.556-1.425 2.729-2.987 2.729h-12.694c-1.562 0-2.846-1.173-2.987-2.729l-1.571-17.271h21.809zm3.667-19.271h-26.001v-2h26zm-24.001-4v-20h22v20zm56 0c0 1.103-.897 2-2 2h-1.157l-.844-16.053-1.997.105 1.986 37.727c.122 1.096-.67 2.086-1.757 2.207-.086.009-.159.014-.232.014-1.02 0-1.874-.766-1.984-1.764l-1.916-20.236h1.901v-2h-6v2h1.901l-1.914 20.22c-.12 1.087-1.058 1.883-2.209 1.768-1.095-.122-1.887-1.112-1.761-2.265l1.868-34.561c.044-.819-.254-1.631-.818-2.226-.565-.595-1.358-.936-2.178-.936h-12.889v-4h18.748l-.774 12.388 3.026 3.026 3.026-3.026-.774-12.375c4.846.135 8.748 4.109 8.748 8.987z" data-original="#000000" class="active-path" data-old_color="#000000" fill="#DA2315"/><path d="m20.498 19c-.746 0-1.081-.298-1.587-.748-.596-.528-1.411-1.252-2.916-1.252s-2.32.724-2.915 1.253c-.505.45-.84.747-1.584.747s-1.078-.297-1.583-.747c-.595-.529-1.409-1.253-2.913-1.253v2c.743 0 1.077.297 1.583.747.594.528 1.408 1.253 2.913 1.253s2.319-.724 2.914-1.253c.506-.45.84-.747 1.585-.747.746 0 1.08.298 1.587.747.595.529 1.41 1.253 2.916 1.253 1.505 0 2.32-.724 2.915-1.252.506-.45.841-.748 1.587-.748v-2c-1.506 0-2.321.724-2.916 1.253-.506.449-.841.747-1.586.747z" data-original="#000000" class="active-path" data-old_color="#000000" fill="#DA2315"/><path d="m7 23h18v2h-18z" data-original="#000000" class="active-path" data-old_color="#000000" fill="#DA2315"/><path d="m7 27h14v2h-14z" data-original="#000000" class="active-path" data-old_color="#000000" fill="#DA2315"/><path d="m23 27h2v2h-2z" data-original="#000000" class="active-path" data-old_color="#000000" fill="#DA2315"/><path d="m7 31h18v2h-18z" data-original="#000000" class="active-path" data-old_color="#000000" fill="#DA2315"/></g> </svg>
