<?xml version="1.0"?>
<svg xmlns="http://www.w3.org/2000/svg" id="Layer_1_1_" enable-background="new 0 0 96 96" height="512px" viewBox="0 0 96 96" width="512px"><g><path d="m93 66h-5.586l-2.707-2.707c-.187-.188-.442-.293-.707-.293h-7v-55c0-.552-.448-1-1-1h-2c-.552 0-1 .448-1 1s.448 1 1 1h1v59h-4v-65c0-.552-.448-1-1-1h-50c-.552 0-1 .448-1 1v6h-7c-.265 0-.52.105-.707.293l-2.707 2.707h-5.586c-.552 0-1 .448-1 1v24c0 .552.448 1 1 1h1.764l3.789 1.895c.138.069.292.105.447.105h7c.552 0 1-.448 1-1s-.448-1-1-1h-6.764l-3.789-1.895c-.138-.069-.292-.105-.447-.105h-1v-22h5c.265 0 .52-.105.707-.293l2.707-2.707h6.586v3h-1c-.552 0-1 .448-1 1s.448 1 1 1h18c1.103 0 2 .897 2 2s-.897 2-2 2h-14c-.552 0-1 .448-1 1s.448 1 1 1h14c1.103 0 2 .897 2 2s-.897 2-2 2h-14c-.552 0-1 .448-1 1s.448 1 1 1h14c1.103 0 2 .897 2 2s-.897 2-2 2h-14c-.552 0-1 .448-1 1s.448 1 1 1h14c1.103 0 2 .897 2 2s-.897 2-2 2h-16c-.552 0-1 .448-1 1v30c0 .022.011.04.012.062.006.091.023.178.053.264.011.032.019.063.033.094.048.104.109.202.193.286.001.001.001.001.001.002l9 9c.192.19.448.292.708.292.129 0 .259-.025.383-.076.373-.155.617-.52.617-.924v-9c0-.552-.448-1-1-1h-8v-28h15c2.206 0 4-1.794 4-4 0-1.2-.542-2.266-1.382-3 .84-.734 1.382-1.8 1.382-3s-.542-2.266-1.382-3c.84-.734 1.382-1.8 1.382-3s-.542-2.266-1.382-3c.84-.734 1.382-1.8 1.382-3 0-2.206-1.794-4-4-4h-15v-10h48v64h-9c-2.206 0-4 1.794-4 4 0 1.2.542 2.266 1.382 3-.597.521-1.035 1.21-1.24 2h-22.142c-.552 0-1 .448-1 1s.448 1 1 1h22.142c.205.79.643 1.479 1.24 2-.84.734-1.382 1.8-1.382 3s.542 2.266 1.382 3c-.84.734-1.382 1.8-1.382 3 0 2.206 1.794 4 4 4h27c.155 0 .309-.036.447-.105l3.789-1.895h1.764c.552 0 1-.448 1-1v-24c0-.552-.448-1-1-1zm-65 4v5.586l-5.586-5.586zm64 20h-1c-.011 0-.02.006-.03.006-.066.002-.13.024-.196.04-.065.016-.131.024-.19.052-.01.005-.021.003-.03.008l-3.79 1.894h-26.764c-1.103 0-2-.897-2-2s.897-2 2-2h14c.552 0 1-.448 1-1s-.448-1-1-1h-14c-1.103 0-2-.897-2-2s.897-2 2-2h14c.552 0 1-.448 1-1s-.448-1-1-1h-14c-1.103 0-2-.897-2-2s.897-2 2-2h14c.552 0 1-.448 1-1s-.448-1-1-1h-14c-1.103 0-2-.897-2-2s.897-2 2-2h18c.552 0 1-.448 1-1s-.448-1-1-1h-1v-3h6.586l2.707 2.707c.187.188.442.293.707.293h5z" data-original="#000000" class="active-path" data-old_color="#000000" fill="#DA2315"/><path d="m26 63h14c.552 0 1-.448 1-1s-.448-1-1-1h-14c-.552 0-1 .448-1 1s.448 1 1 1z" data-original="#000000" class="active-path" data-old_color="#000000" fill="#DA2315"/><path d="m64 63c.552 0 1-.448 1-1s-.448-1-1-1h-14c-.552 0-1 .448-1 1s.448 1 1 1z" data-original="#000000" class="active-path" data-old_color="#000000" fill="#DA2315"/><path d="m26 58h14c.552 0 1-.448 1-1s-.448-1-1-1h-14c-.552 0-1 .448-1 1s.448 1 1 1z" data-original="#000000" class="active-path" data-old_color="#000000" fill="#DA2315"/><path d="m64 56h-14c-.552 0-1 .448-1 1s.448 1 1 1h14c.552 0 1-.448 1-1s-.448-1-1-1z" data-original="#000000" class="active-path" data-old_color="#000000" fill="#DA2315"/><path d="m45 7c-2.757 0-5 2.243-5 5s2.243 5 5 5 5-2.243 5-5-2.243-5-5-5zm0 8c-1.654 0-3-1.346-3-3s1.346-3 3-3 3 1.346 3 3-1.346 3-3 3z" data-original="#000000" class="active-path" data-old_color="#000000" fill="#DA2315"/><path d="m50 23h-7c-.552 0-1 .448-1 1s.448 1 1 1h7c.552 0 1-.448 1-1s-.448-1-1-1z" data-original="#000000" class="active-path" data-old_color="#000000" fill="#DA2315"/><path d="m64 23h-10c-.552 0-1 .448-1 1s.448 1 1 1h10c.552 0 1-.448 1-1s-.448-1-1-1z" data-original="#000000" class="active-path" data-old_color="#000000" fill="#DA2315"/><path d="m42 29c0 .552.448 1 1 1h12c.552 0 1-.448 1-1s-.448-1-1-1h-12c-.552 0-1 .448-1 1z" data-original="#000000" class="active-path" data-old_color="#000000" fill="#DA2315"/><path d="m64 28h-5c-.552 0-1 .448-1 1s.448 1 1 1h5c.552 0 1-.448 1-1s-.448-1-1-1z" data-original="#000000" class="active-path" data-old_color="#000000" fill="#DA2315"/><path d="m43 35h2c.552 0 1-.448 1-1s-.448-1-1-1h-2c-.552 0-1 .448-1 1s.448 1 1 1z" data-original="#000000" class="active-path" data-old_color="#000000" fill="#DA2315"/><path d="m57 33h-8c-.552 0-1 .448-1 1s.448 1 1 1h8c.552 0 1-.448 1-1s-.448-1-1-1z" data-original="#000000" class="active-path" data-old_color="#000000" fill="#DA2315"/><path d="m51 43c-.552 0-1 .448-1 1s.448 1 1 1h2c.552 0 1-.448 1-1s-.448-1-1-1z" data-original="#000000" class="active-path" data-old_color="#000000" fill="#DA2315"/><path d="m66 44c0-.552-.448-1-1-1h-8c-.552 0-1 .448-1 1s.448 1 1 1h8c.552 0 1-.448 1-1z" data-original="#000000" class="active-path" data-old_color="#000000" fill="#DA2315"/><path d="m64 33h-3c-.552 0-1 .448-1 1s.448 1 1 1h3c.552 0 1-.448 1-1s-.448-1-1-1z" data-original="#000000" class="active-path" data-old_color="#000000" fill="#DA2315"/><path d="m43 40h8c.552 0 1-.448 1-1s-.448-1-1-1h-8c-.552 0-1 .448-1 1s.448 1 1 1z" data-original="#000000" class="active-path" data-old_color="#000000" fill="#DA2315"/><path d="m54 39c0 .552.448 1 1 1h9c.552 0 1-.448 1-1s-.448-1-1-1h-9c-.552 0-1 .448-1 1z" data-original="#000000" class="active-path" data-old_color="#000000" fill="#DA2315"/><path d="m26 45h8c.552 0 1-.448 1-1s-.448-1-1-1h-8c-.552 0-1 .448-1 1s.448 1 1 1z" data-original="#000000" class="active-path" data-old_color="#000000" fill="#DA2315"/><path d="m37 44c0 .552.448 1 1 1h9c.552 0 1-.448 1-1s-.448-1-1-1h-9c-.552 0-1 .448-1 1z" data-original="#000000" class="active-path" data-old_color="#000000" fill="#DA2315"/><circle cx="49" cy="74" r="1" data-original="#000000" class="active-path" data-old_color="#000000" fill="#DA2315"/><circle cx="45" cy="74" r="1" data-original="#000000" class="active-path" data-old_color="#000000" fill="#DA2315"/><circle cx="41" cy="74" r="1" data-original="#000000" class="active-path" data-old_color="#000000" fill="#DA2315"/><path d="m3 91h3v2c0 .552.448 1 1 1h6c.552 0 1-.448 1-1v-42c0-.135-.027-.27-.081-.394l-3-7c-.157-.368-.519-.606-.919-.606s-.762.238-.919.606l-3 7c-.054.124-.081.259-.081.394v38h-2v-13c0-.552-.448-1-1-1s-1 .448-1 1v14c0 .552.448 1 1 1zm5-39.795 2-4.667 2 4.667v16.795h-4zm0 18.795h4v22h-4z" data-original="#000000" class="active-path" data-old_color="#000000" fill="#DA2315"/><path d="m93 5h-3v-2c0-.552-.448-1-1-1h-6c-.552 0-1 .448-1 1v42c0 .135.027.27.081.394l3 7c.157.368.519.606.919.606s.762-.238.919-.606l3-7c.054-.124.081-.259.081-.394v-38h2v13c0 .552.448 1 1 1s1-.448 1-1v-14c0-.552-.448-1-1-1zm-5 39.795-2 4.667-2-4.667v-16.795h4zm0-18.795h-4v-22h4z" data-original="#000000" class="active-path" data-old_color="#000000" fill="#DA2315"/></g> </svg>
